<svg version="1.1" id="Layer_1" xmlns="http://www.w3.org/2000/svg" xmlns:xlink="http://www.w3.org/1999/xlink" x="0px" y="0px"
	 width="100%" viewBox="0 0 218 140" enable-background="new 0 0 218 140" xml:space="preserve">
<path fill="#010000" opacity="1.000000" stroke="none" 
	d="
M219.000000,9.000000 
	C219.000000,38.687561 219.000000,68.375122 218.556244,98.523224 
	C217.408051,98.038307 216.141830,97.119537 216.095459,96.142845 
	C215.882645,91.661438 215.960373,87.163002 216.033844,82.672310 
	C216.086838,79.432594 216.336716,75.665451 212.342087,75.026169 
	C209.014359,74.493614 205.421417,75.300980 202.000153,75.851654 
	C200.886551,76.030899 199.943924,77.272354 198.924484,77.645233 
	C198.864487,76.503365 198.803116,75.744232 198.809998,74.738541 
	C198.590469,74.394852 198.302719,74.297729 197.589783,74.117737 
	C193.444839,74.525749 189.725067,75.016624 186.005295,75.507500 
	C186.047516,75.863358 186.089752,76.219215 186.131973,76.575066 
	C187.427216,76.879356 188.722443,77.183640 189.804291,77.437798 
	C189.804291,84.840828 189.804291,91.810783 189.804291,98.605476 
	C188.386642,99.027336 187.192215,99.382767 185.997803,99.738197 
	C186.068375,100.087341 186.138947,100.436478 186.209503,100.785622 
	C191.461655,100.785622 196.713791,100.785622 202.374466,100.830788 
	C204.572418,100.299759 206.361816,99.723557 208.468353,98.987686 
	C209.481857,98.681610 210.676758,98.231491 210.800201,98.434113 
	C212.811737,101.735931 216.036484,100.923248 219.000000,101.000000 
	C219.000000,114.310333 219.000000,127.620667 219.000000,141.000000 
	C147.979126,141.000000 76.958214,141.000000 5.468769,140.531342 
	C5.000252,98.762756 4.999259,57.462830 5.001281,16.162901 
	C5.001631,9.006909 5.007525,9.000805 12.167145,9.000651 
	C81.111427,8.999168 150.055710,8.999902 219.000000,9.000000 
M89.773315,76.314346 
	C89.369606,75.569916 88.910507,74.156128 88.570717,74.184242 
	C85.044846,74.475952 81.538200,74.999893 77.756378,75.494614 
	C82.407631,78.816795 82.439857,96.915871 78.157852,100.341248 
	C83.719093,100.341248 89.301926,100.341248 94.884758,100.341248 
	C94.882156,100.028595 94.879562,99.715935 94.876968,99.403282 
	C93.340363,99.175934 91.803764,98.948586 89.237358,98.568871 
	C90.141083,91.942902 91.025337,85.459778 92.701675,78.602020 
	C94.286842,80.481918 94.649704,84.703644 98.385056,82.604599 
	C99.684326,81.874489 100.500969,78.619370 100.083344,76.863457 
	C99.324898,73.674568 95.633698,72.952827 92.794090,74.909431 
	C91.730316,75.642410 90.673714,76.385765 89.773315,76.314346 
M34.130836,43.148895 
	C33.954700,42.953163 33.778568,42.757427 33.927013,41.953339 
	C40.458702,37.384102 47.512665,34.312675 55.357208,33.778328 
	C51.234665,44.439968 46.477463,54.458805 43.551094,64.986549 
	C40.898129,74.530708 38.440434,84.091087 32.553310,92.025597 
	C30.669699,94.564270 25.478964,96.543343 22.405416,95.898643 
	C16.555805,94.671638 15.202913,91.347359 15.972027,87.200653 
	C18.020903,87.300629 21.446011,87.852890 21.579559,87.410805 
	C22.355103,84.843521 23.299402,81.620232 22.328251,79.450607 
	C21.516169,77.636337 18.230904,76.324211 15.894997,76.054962 
	C14.746412,75.922577 12.574173,78.459259 12.096539,80.138359 
	C11.333770,82.819839 12.270624,86.058868 11.274714,88.583122 
	C9.659353,92.677444 11.866982,95.311607 14.260386,97.205643 
	C19.712229,101.519981 26.105659,104.476723 33.136036,101.934700 
	C39.411148,99.665756 45.078854,96.233124 47.261997,89.018097 
	C49.363865,82.071678 51.886181,75.251640 54.258900,68.388222 
	C57.411674,59.268391 60.788788,50.220100 63.679260,41.018482 
	C64.874863,37.212360 65.929062,34.395958 70.751778,34.361008 
	C76.002518,34.322952 77.680832,37.453819 78.540215,41.633392 
	C78.903824,43.401749 78.719955,45.275902 78.888496,47.092358 
	C79.484276,53.513573 73.369576,60.051628 66.893829,59.901855 
	C64.995872,59.857960 63.096039,59.895103 61.097462,59.895103 
	C62.193672,66.456993 64.262306,68.809341 67.213867,67.388206 
	C70.130768,65.983757 73.086494,64.642235 75.912506,63.070499 
	C81.236755,60.109325 86.354103,57.275997 89.596382,51.379761 
	C93.117859,44.975811 91.770325,33.466614 81.754189,31.808680 
	C78.118584,31.206888 74.552162,30.187092 70.953674,29.359818 
	C76.228561,24.527519 82.416176,21.958931 88.140884,21.825188 
	C91.595039,21.744490 95.111252,21.506178 98.449707,20.710135 
	C99.737076,20.403164 101.422127,18.362368 101.431877,17.099976 
	C101.440804,15.944691 99.623009,14.384164 98.260536,13.725852 
	C97.040733,13.136475 95.269089,13.215302 93.869965,13.545731 
	C82.428284,16.247904 70.649139,18.233856 62.233089,27.754704 
	C61.576160,28.497869 60.248444,29.004793 59.226315,29.015196 
	C42.478264,29.185678 29.339891,36.161896 19.095533,49.355259 
	C16.653585,52.500160 16.615614,55.532280 18.374315,57.955009 
	C19.785198,59.898605 22.933413,61.370659 25.432264,61.576633 
	C31.313482,62.061398 39.769016,54.844986 41.080448,48.994713 
	C42.138321,44.275574 39.667824,42.280125 34.130836,43.148895 
M119.962082,74.065704 
	C118.967201,74.038116 117.971909,73.976471 116.977493,73.988358 
	C109.102119,74.082436 103.356926,79.521614 103.063881,87.144890 
	C102.766884,94.871063 107.798531,101.260368 114.728821,101.957306 
	C123.764061,102.865936 129.971237,98.360672 131.168640,90.025009 
	C132.228119,82.649651 128.823303,77.438118 119.962082,74.065704 
M180.135254,86.024124 
	C181.557205,85.948853 182.979156,85.873589 184.440552,85.796227 
	C182.843872,77.050514 178.339890,73.343643 170.470337,74.005997 
	C163.881012,74.560600 158.830093,81.002365 159.054504,88.565308 
	C159.271271,95.869934 164.441452,101.624481 171.129425,102.004967 
	C178.664902,102.433670 182.960526,99.422462 183.981735,91.627647 
	C182.228134,94.025024 181.528275,95.840141 180.219193,96.586037 
	C177.778336,97.976784 174.919907,99.600525 172.362320,99.411194 
	C171.092163,99.317169 169.701935,95.522064 169.105377,93.210495 
	C168.553513,91.072083 168.987793,88.679169 168.987793,86.024124 
	C172.632416,86.024124 175.927048,86.024124 180.135254,86.024124 
M149.529053,92.680099 
	C152.707703,95.021072 152.819977,97.090546 149.866669,98.903076 
	C146.038834,101.252327 141.034454,99.560448 138.484116,95.113640 
	C137.805893,93.931091 136.947403,92.851929 136.171661,91.725304 
	C135.894730,91.897858 135.617798,92.070412 135.340866,92.242966 
	C135.340866,95.109116 135.340866,97.975258 135.340866,100.120163 
	C137.862167,100.629929 139.943802,100.963203 141.978668,101.480461 
	C146.218689,102.558250 150.858231,102.909042 153.333008,99.061996 
	C155.182129,96.187531 156.047867,91.850342 155.493439,88.469185 
	C154.794968,84.209625 150.487183,83.222176 146.453171,83.018730 
	C145.625961,82.977005 144.661713,83.117538 144.004150,82.744637 
	C142.342850,81.802483 140.820175,80.615875 139.241959,79.527206 
	C141.405502,78.389778 143.525467,76.490494 145.746811,76.363419 
	C147.430527,76.267082 149.322006,78.329849 150.967209,79.626953 
	C151.849121,80.322266 152.406219,81.429535 153.109894,82.350906 
	C153.422897,82.208961 153.735916,82.067017 154.048935,81.925079 
	C154.048935,79.331009 154.048935,76.736931 154.048935,74.716003 
	C150.660172,74.444374 147.714340,74.046051 144.763794,74.007454 
	C139.558090,73.939354 135.894989,77.216133 135.234802,82.260040 
	C134.647263,86.748924 137.244827,90.177917 142.386047,91.424286 
	C144.464630,91.928185 146.628677,92.079453 149.529053,92.680099 
z"/>
<path fill="#070000" opacity="1.000000" stroke="none" 
	d="
M219.000000,8.505266 
	C150.055710,8.999902 81.111427,8.999168 12.167145,9.000651 
	C5.007525,9.000805 5.001631,9.006909 5.001281,16.162901 
	C4.999259,57.462830 5.000252,98.762756 5.000112,140.531342 
	C3.668433,141.000000 2.336866,141.000000 1.003974,141.000000 
	C1.002649,94.396919 1.002649,47.793839 1.002649,1.095379 
	C73.666565,1.095379 146.333267,1.095379 219.000000,1.095379 
	C219.000000,3.350039 219.000000,5.680286 219.000000,8.505266 
z"/>
<path fill="#F6F6F6" opacity="1.000000" stroke="none" 
	d="
M198.923096,78.027969 
	C199.943924,77.272354 200.886551,76.030899 202.000153,75.851654 
	C205.421417,75.300980 209.014359,74.493614 212.342087,75.026169 
	C216.336716,75.665451 216.086838,79.432594 216.033844,82.672310 
	C215.960373,87.163002 215.882645,91.661438 216.095459,96.142845 
	C216.141830,97.119537 217.408051,98.038307 218.556244,98.991882 
	C219.000000,99.444443 219.000000,99.888893 219.000000,100.666672 
	C216.036484,100.923248 212.811737,101.735931 210.800201,98.434113 
	C210.676758,98.231491 209.481857,98.681610 208.244110,98.799805 
	C207.538254,98.666763 207.373779,98.561935 207.143204,98.034134 
	C207.072708,92.127525 207.127014,86.643013 207.045441,81.160522 
	C206.979294,76.715683 206.029083,76.210533 202.003662,78.343452 
	C201.186447,78.776451 200.492966,79.442924 199.474091,79.960396 
	C199.111542,79.288681 199.017319,78.658325 198.923096,78.027969 
z"/>
<path fill="#F70000" opacity="1.000000" stroke="none" 
	d="
M34.615368,43.772793 
	C39.667824,42.280125 42.138321,44.275574 41.080448,48.994713 
	C39.769016,54.844986 31.313482,62.061398 25.432264,61.576633 
	C22.933413,61.370659 19.785198,59.898605 18.374315,57.955009 
	C16.615614,55.532280 16.653585,52.500160 19.095533,49.355259 
	C29.339891,36.161896 42.478264,29.185678 59.226315,29.015196 
	C60.248444,29.004793 61.576160,28.497869 62.233089,27.754704 
	C70.649139,18.233856 82.428284,16.247904 93.869965,13.545731 
	C95.269089,13.215302 97.040733,13.136475 98.260536,13.725852 
	C99.623009,14.384164 101.440804,15.944691 101.431877,17.099976 
	C101.422127,18.362368 99.737076,20.403164 98.449707,20.710135 
	C95.111252,21.506178 91.595039,21.744490 88.140884,21.825188 
	C82.416176,21.958931 76.228561,24.527519 70.953926,29.358917 
	C74.552162,30.187092 78.118584,31.206888 81.754189,31.808680 
	C91.770325,33.466614 93.117859,44.975811 89.596382,51.379761 
	C86.354103,57.275997 81.236755,60.109325 75.912506,63.070499 
	C73.086494,64.642235 70.130768,65.983757 67.213867,67.388206 
	C64.262306,68.809341 62.193672,66.456993 61.097462,59.895103 
	C63.096039,59.895103 64.995872,59.857960 66.893829,59.901855 
	C73.369576,60.051628 79.484276,53.513573 78.888496,47.092358 
	C78.719955,45.275902 78.903824,43.401749 78.540215,41.633392 
	C77.680832,37.453819 76.002518,34.322952 70.751778,34.361008 
	C65.929062,34.395958 64.874863,37.212360 63.679260,41.018482 
	C60.788788,50.220100 57.411674,59.268391 54.258900,68.388222 
	C51.886181,75.251640 49.363865,82.071678 47.261997,89.018097 
	C45.078854,96.233124 39.411148,99.665756 33.136036,101.934700 
	C26.105659,104.476723 19.712229,101.519981 14.260386,97.205643 
	C11.866982,95.311607 9.659353,92.677444 11.274714,88.583122 
	C12.270624,86.058868 11.333770,82.819839 12.096539,80.138359 
	C12.574173,78.459259 14.746412,75.922577 15.894997,76.054962 
	C18.230904,76.324211 21.516169,77.636337 22.328251,79.450607 
	C23.299402,81.620232 22.355103,84.843521 21.579559,87.410805 
	C21.446011,87.852890 18.020903,87.300629 15.972027,87.200653 
	C15.202913,91.347359 16.555805,94.671638 22.405416,95.898643 
	C25.478964,96.543343 30.669699,94.564270 32.553310,92.025597 
	C38.440434,84.091087 40.898129,74.530708 43.551094,64.986549 
	C46.477463,54.458805 51.234665,44.439968 55.357208,33.778328 
	C47.512665,34.312675 40.458702,37.384102 33.473797,42.422714 
	C25.286020,48.397945 23.407963,51.760696 25.348724,56.917809 
	C29.601728,54.689163 35.652233,53.954220 32.785709,46.501045 
	C32.559605,45.913155 33.967087,44.696976 34.615368,43.772793 
z"/>
<path fill="#F6F6F6" opacity="1.000000" stroke="none" 
	d="
M120.377411,74.104462 
	C128.823303,77.438118 132.228119,82.649651 131.168640,90.025009 
	C129.971237,98.360672 123.764061,102.865936 114.728821,101.957306 
	C107.798531,101.260368 102.766884,94.871063 103.063881,87.144890 
	C103.356926,79.521614 109.102119,74.082436 116.977493,73.988358 
	C117.971909,73.976471 118.967201,74.038116 120.377411,74.104462 
M115.133842,76.718750 
	C111.126419,83.526947 113.021255,90.719475 114.024567,97.770515 
	C114.149261,98.646835 116.899200,100.059822 117.834549,99.694160 
	C119.188675,99.164803 120.797752,97.294937 120.894852,95.899292 
	C121.251335,90.775291 121.130341,85.608109 120.985863,80.462883 
	C120.896515,77.280792 119.368828,75.441467 115.133842,76.718750 
z"/>
<path fill="#F2F2F2" opacity="1.000000" stroke="none" 
	d="
M179.678467,86.024124 
	C175.927048,86.024124 172.632416,86.024124 168.987793,86.024124 
	C168.987793,88.679169 168.553513,91.072083 169.105377,93.210495 
	C169.701935,95.522064 171.092163,99.317169 172.362320,99.411194 
	C174.919907,99.600525 177.778336,97.976784 180.219193,96.586037 
	C181.528275,95.840141 182.228134,94.025024 183.981735,91.627647 
	C182.960526,99.422462 178.664902,102.433670 171.129425,102.004967 
	C164.441452,101.624481 159.271271,95.869934 159.054504,88.565308 
	C158.830093,81.002365 163.881012,74.560600 170.470337,74.005997 
	C178.339890,73.343643 182.843872,77.050514 184.440552,85.796227 
	C182.979156,85.873589 181.557205,85.948853 179.678467,86.024124 
M168.946030,82.552605 
	C170.817322,83.199608 172.688599,83.846611 175.159958,84.701088 
	C175.159958,82.198532 175.542877,80.609421 175.053635,79.362511 
	C174.551453,78.082626 173.170441,76.189377 172.220001,76.215813 
	C168.803757,76.310875 168.925278,79.152649 168.946030,82.552605 
z"/>
<path fill="#EFEFEF" opacity="1.000000" stroke="none" 
	d="
M149.141449,92.535645 
	C146.628677,92.079453 144.464630,91.928185 142.386047,91.424286 
	C137.244827,90.177917 134.647263,86.748924 135.234802,82.260040 
	C135.894989,77.216133 139.558090,73.939354 144.763794,74.007454 
	C147.714340,74.046051 150.660172,74.444374 154.048935,74.716003 
	C154.048935,76.736931 154.048935,79.331009 154.048935,81.925079 
	C153.735916,82.067017 153.422897,82.208961 153.109894,82.350906 
	C152.406219,81.429535 151.849121,80.322266 150.967209,79.626953 
	C149.322006,78.329849 147.430527,76.267082 145.746811,76.363419 
	C143.525467,76.490494 141.405502,78.389778 139.241959,79.527206 
	C140.820175,80.615875 142.342850,81.802483 144.004150,82.744637 
	C144.661713,83.117538 145.625961,82.977005 146.453171,83.018730 
	C150.487183,83.222176 154.794968,84.209625 155.493439,88.469185 
	C156.047867,91.850342 155.182129,96.187531 153.333008,99.061996 
	C150.858231,102.909042 146.218689,102.558250 141.978668,101.480461 
	C139.943802,100.963203 137.862167,100.629929 135.340866,100.120163 
	C135.340866,97.975258 135.340866,95.109116 135.340866,92.242966 
	C135.617798,92.070412 135.894730,91.897858 136.171661,91.725304 
	C136.947403,92.851929 137.805893,93.931091 138.484116,95.113640 
	C141.034454,99.560448 146.038834,101.252327 149.866669,98.903076 
	C152.819977,97.090546 152.707703,95.021072 149.141449,92.535645 
z"/>
<path fill="#FAFAFA" opacity="1.000000" stroke="none" 
	d="
M91.909584,78.976654 
	C91.025337,85.459778 90.141083,91.942902 89.237358,98.568871 
	C91.803764,98.948586 93.340363,99.175934 94.876968,99.403282 
	C94.879562,99.715935 94.882156,100.028595 94.884758,100.341248 
	C89.301926,100.341248 83.719093,100.341248 78.157852,100.341248 
	C82.439857,96.915871 82.407631,78.816795 77.756378,75.494614 
	C81.538200,74.999893 85.044846,74.475952 88.570717,74.184242 
	C88.910507,74.156128 89.369606,75.569916 89.488861,76.919357 
	C88.457481,81.079422 90.904175,78.685692 91.909584,78.976654 
z"/>
<path fill="#FAFAFA" opacity="1.000000" stroke="none" 
	d="
M198.924484,77.645233 
	C199.017319,78.658325 199.111542,79.288681 199.498657,80.379608 
	C199.509872,86.425354 199.145203,92.009583 199.081680,97.597237 
	C199.075684,98.125282 200.961365,98.674835 201.950836,99.476044 
	C201.943893,100.086990 201.954910,100.436310 201.965927,100.785622 
	C196.713791,100.785622 191.461655,100.785622 186.209503,100.785622 
	C186.138947,100.436478 186.068375,100.087341 185.997803,99.738197 
	C187.192215,99.382767 188.386642,99.027336 189.804291,98.605476 
	C189.804291,91.810783 189.804291,84.840828 189.804291,77.437798 
	C188.722443,77.183640 187.427216,76.879356 186.131973,76.575066 
	C186.089752,76.219215 186.047516,75.863358 186.005295,75.507500 
	C189.725067,75.016624 193.444839,74.525749 197.670593,74.282471 
	C198.319138,74.738663 198.507523,74.890335 198.741730,74.985100 
	C198.803116,75.744232 198.864487,76.503365 198.924484,77.645233 
z"/>
<path fill="#E9E9E9" opacity="1.000000" stroke="none" 
	d="
M92.305634,78.789337 
	C90.904175,78.685692 88.457481,81.079422 89.409126,77.324379 
	C90.673714,76.385765 91.730316,75.642410 92.794090,74.909431 
	C95.633698,72.952827 99.324898,73.674568 100.083344,76.863457 
	C100.500969,78.619370 99.684326,81.874489 98.385056,82.604599 
	C94.649704,84.703644 94.286842,80.481918 92.305634,78.789337 
z"/>
<path fill="#DADADA" opacity="1.000000" stroke="none" 
	d="
M202.374466,100.830788 
	C201.954910,100.436310 201.943893,100.086990 202.334427,99.431381 
	C204.227066,98.902420 205.718185,98.679764 207.209290,98.457108 
	C207.373779,98.561935 207.538254,98.666763 207.926971,98.959473 
	C206.361816,99.723557 204.572418,100.299759 202.374466,100.830788 
z"/>
<path fill="#F6F6F6" opacity="1.000000" stroke="none" 
	d="
M198.809982,74.738541 
	C198.507523,74.890335 198.319138,74.738663 198.095764,74.365341 
	C198.302719,74.297729 198.590469,74.394852 198.809982,74.738541 
z"/>
<path fill="#000000" opacity="1.000000" stroke="none" 
	d="
M207.143204,98.034134 
	C205.718185,98.679764 204.227066,98.902420 202.352386,99.169739 
	C200.961365,98.674835 199.075684,98.125282 199.081680,97.597237 
	C199.145203,92.009583 199.509872,86.425354 199.766998,80.420967 
	C200.492966,79.442924 201.186447,78.776451 202.003662,78.343452 
	C206.029083,76.210533 206.979294,76.715683 207.045441,81.160522 
	C207.127014,86.643013 207.072708,92.127525 207.143204,98.034134 
z"/>
<path fill="#010000" opacity="1.000000" stroke="none" 
	d="
M34.373100,43.460846 
	C33.967087,44.696976 32.559605,45.913155 32.785709,46.501045 
	C35.652233,53.954220 29.601728,54.689163 25.348724,56.917809 
	C23.407963,51.760696 25.286020,48.397945 33.311508,42.726891 
	C33.778568,42.757427 33.954700,42.953163 34.373100,43.460846 
z"/>
<path fill="#040404" opacity="1.000000" stroke="none" 
	d="
M115.486115,76.506744 
	C119.368828,75.441467 120.896515,77.280792 120.985863,80.462883 
	C121.130341,85.608109 121.251335,90.775291 120.894852,95.899292 
	C120.797752,97.294937 119.188675,99.164803 117.834549,99.694160 
	C116.899200,100.059822 114.149261,98.646835 114.024567,97.770515 
	C113.021255,90.719475 111.126419,83.526947 115.486115,76.506744 
z"/>
<path fill="#030303" opacity="1.000000" stroke="none" 
	d="
M168.942322,82.112289 
	C168.925278,79.152649 168.803757,76.310875 172.220001,76.215813 
	C173.170441,76.189377 174.551453,78.082626 175.053635,79.362511 
	C175.542877,80.609421 175.159958,82.198532 175.159958,84.701088 
	C172.688599,83.846611 170.817322,83.199608 168.942322,82.112289 
z"/>
</svg>